<svg xmlns="http://www.w3.org/2000/svg" data-name="Calque 1" viewBox="0 0 1152.09 458.17">
  <defs/>
  <path fill="#fff" d="M619.34 204c0-39.61-26.18-62.78-61.9-62.78h-44.92v125.37h44.74c35.74 0 62.08-22.99 62.08-62.59zm-82.42 40v-80.16h19.63c20.52 0 37.5 12.91 37.5 40.14s-17.16 40-37.67 40zM633.98 179.58h23.52v87.01h-23.52zM645.66 165.43a14.51 14.51 0 000-29 14.51 14.51 0 100 29zM713.93 282.15c-11.14 0-18.75-6.9-20.34-16.44l-21.22 5.65c2.47 16.62 18.39 31.48 42.27 31.48 32.71 0 45.63-21.75 45.63-45.63v-77.63h-22.64v10.25c-3-5.83-11-11.85-24.76-11.85-23.88 0-40.5 19.45-40.5 42.45 0 24.4 17.33 42.27 40.5 42.27 12.56 0 20.69-5.49 24.23-11.14v6.36c0 16.8-8.31 24.23-23.17 24.23zm3-39.62c-12.21 0-20.87-8.48-20.87-22.1 0-13.44 9.19-21.93 20.87-21.93 11.31 0 20.51 8.49 20.51 21.93s-8.44 22.1-20.5 22.1zM789.15 165.43a14.51 14.51 0 000-29 14.51 14.51 0 000 29zM777.48 179.58H801v87.01h-23.52zM853.64 153.58h-21.22v12.2c0 7.78-4.24 13.8-13.44 13.8h-4.42v20.86h15.74v40.5c0 16.8 10.61 26.88 27.59 26.88 6.9 0 11.14-1.23 13.26-2.11v-19.46a34.35 34.35 0 01-7.25.71c-6.72 0-10.26-2.48-10.26-10.08v-36.44h17.51v-20.86h-17.51zM932.11 213.36l-21.4 3.17c-14.5 2.13-26 10.79-26 26.36 0 13.62 11.32 26.17 29.89 26.17 12.91 0 21.22-6 25.65-12.91a59.09 59.09 0 00.88 10.44h21.58a97.49 97.49 0 01-1.07-13.8V210c0-17.52-10.25-33.08-37.84-33.08-23.35 0-35.9 15-37.32 28.65l20.87 4.43c.71-7.61 6.37-14.15 16.62-14.15 9.91 0 14.68 5.12 14.68 11.31 0 3.01-1.59 5.48-6.54 6.2zm6.54 18c0 15.39-9.19 20.17-19.1 20.17-7.6 0-11.31-5-11.31-10.09 0-6.72 4.77-10.08 10.78-11l19.63-3zM978.85 141.2h23.52v125.39h-23.52zM569.29 403.35c-20.16 0-38.91-14.68-38.91-41.39 0-28.47 19.81-41.91 38.55-41.91 21.76 0 31.48 13.26 34.49 25.29l23-7.25c-4.95-20.34-22.81-41.57-57.48-41.57-33.6 0-63.84 25.47-63.84 65.44s29.18 65.26 64.2 65.26c35.19 0 53.23-23.34 58-42.62l-22.82-6.9c-3.36 11.67-13.79 25.65-35.19 25.65zM716 368c0-17.5-10.26-33.07-37.85-33.07-23.35 0-35.9 15-37.32 28.65l20.85 4.42c.71-7.6 6.37-14.15 16.63-14.15 9.9 0 14.68 5.14 14.68 11.32 0 3-1.6 5.49-6.55 6.19L665 374.52c-14.5 2.12-26 10.79-26 26.35 0 13.62 11.31 26.17 29.88 26.17 12.91 0 21.23-6 25.65-12.91a59.09 59.09 0 00.88 10.44H717a97.61 97.61 0 01-1-13.79zm-23 21.4c0 15.39-9.2 20.16-19.1 20.16-7.61 0-11.32-4.95-11.32-10.07 0-6.72 4.77-10.09 10.78-11l19.64-3zM834.56 335.08c-11.5 0-20.7 3.89-27.59 14.5-4.43-9.37-14-14.5-25.82-14.5-9.55 0-20.7 4.6-25.47 13.09v-10.61h-22.46v87h23.52v-50.92c0-9.56 6-17.16 16.27-17.16 10.61 0 15.39 7.07 15.39 16.45v51.64h23.34v-50.93c0-9.38 6-17.16 16.09-17.16 10.79 0 15.39 7.07 15.39 16.45v51.64H866v-56.42c0-23.34-15.35-33.07-31.44-33.07zM932.77 335.61c-13.08 0-22.81 5.84-26.7 12.56v-10.61h-22.82v120.61h23.53v-42.09c4.24 5.84 13.08 10.61 25.11 10.61 24.58 0 41-19.45 41-45.8.03-25.82-14.65-45.28-40.12-45.28zm-4.59 70c-12 0-21.76-9.19-21.76-24.58s9.73-24.4 21.76-24.4 21.57 9 21.57 24.4c0 15.6-9.55 24.61-21.57 24.61zM1067.19 337.56h-23.52v50.58c0 10.08-6 17.15-16.45 17.15-11 0-15.91-7.78-15.91-17.51v-50.22h-23.53v55c0 18.92 12 34.31 33.08 34.31 9.19 0 19.27-3.54 24.05-11.67a58.79 58.79 0 00.71 9.37h22.46a141.27 141.27 0 01-.89-15.74zM1126.27 371.86l-12.38-2.64c-4.78-.89-8-3.54-8-7.79 0-4.95 5-8.67 11.14-8.67 9.9 0 13.62 6.55 14.33 11.68L1151 360c-1.07-9.37-9.38-25.12-34.14-25.12-18.74 0-32.54 12.91-32.54 28.48 0 12.2 7.61 22.28 24.41 26l11.49 2.66c6.72 1.41 9.38 4.6 9.38 8.49 0 4.59-3.72 8.66-11.5 8.66-10.26 0-15.39-6.37-15.92-13.26l-20.16 4.42c1.06 9.9 10.08 26.88 36.26 26.88 22.81 0 33.78-14.5 33.78-28.65.03-12.72-8.64-23.16-25.79-26.7zM141.42 70.71h70.71v282.85h-70.71zM70.71 353.56h70.71v70.71H0V0h141.42v70.71H70.71v282.85zM434.99 424.27v-70.71h-80.42V70.71h80.42V0H283.86v424.27h151.13z"/>
</svg>